# xmcd
#
# Track frame offsets:
#	150
#	27186
#	42085
#	57241
#	86033
#	110179
#	125345
#	148612
#	173313
#	194264
#	228022
#	253369
#	284851
#
# Disc length: 3974 seconds
#
# Revision: 1
# Processed by: cddbd v1.5.2PL0 Copyright (c) Steve Scherf et al.
# Submitted via: audiograbber 1.83.01
#
DISCID=b90f840d
DTITLE=Grateful Dead - 71-08-14 Berkeley Community Theatre, Berkeley CA
DYEAR=1900
DGENRE=
TTITLE0=Bertha
TTITLE1=Me and My Uncle
TTITLE2=Mr Charlie
TTITLE3=Sugaree
TTITLE4=El Paso
TTITLE5=Big Railroad Blues
TTITLE6=Big Boss Man
TTITLE7=Brokedown Palace
TTITLE8=Playing In The Band
TTITLE9=Hard To Handle
TTITLE10=Cumberland Blues
TTITLE11=Loser
TTITLE12=Promised Land
EXTD=
EXTT0=
EXTT1=
EXTT2=
EXTT3=
EXTT4=
EXTT5=
EXTT6=
EXTT7=
EXTT8=
EXTT9=
EXTT10=
EXTT11=
EXTT12=
PLAYORDER=
